#!OML:ASF I:\Actors\actors\Patient Classification 2\Patient 1\Session 1\actor1.ASF
:FULLY-SPECIFIED
:DEGREES
510
root -0.55202 18.2197 5.29898 -10.0864 0.503927 -1.27898
lowerback 11.6123 0.423301 2.09135
upperback 4.48102 0.795339 0.185473
thorax -1.80349 0.412705 -1.0877
lowerneck -7.65465 -1.53158 0.230752
upperneck 19.0301 -2.49908 1.87753
head 7.09826 -1.01961 0.360618
rclavicle 1.53515e-014 1.46604e-014
rhumerus 35.1642 30.355 -57.4934
rradius 59.0319
rwrist 15.8056
rhand -17.2516 -33.3368
rfingers 7.12502
rthumb 8.99259 -63.1252
lclavicle 1.53515e-014 1.46604e-014
lhumerus 26.3892 -24.0138 73.9271
lradius 59.8925
lwrist 17.0216
lhand -12.3033 -16.1066
lfingers 7.12502
lthumb 13.7647 13.4181
rfemur 9.75896 -2.15893 14.082
rtibia 17.6002
rfoot -20.5349 -4.73122
rtoes -11.1727
lfemur -3.00338 5.3631 -15.3062
ltibia 35.96
lfoot -23.2116 7.13923
ltoes -55.57
511
root -0.561416 18.2193 5.30414 -10.0943 0.563404 -1.32302
lowerback 11.6236 0.434644 2.09672
upperback 4.48606 0.812443 0.228309
thorax -1.80442 0.421046 -1.04859
lowerneck -7.73292 -1.54397 0.156458
upperneck 19.0389 -2.5061 1.88034
head 7.11599 -1.02719 0.372659
rclavicle 1.87914e-016 3.77691e-015
rhumerus 34.8318 30.1624 -57.8551
rradius 59.1413
rwrist 15.2405
rhand -17.4304 -33.7099
rfingers 7.12502
rthumb 8.82006 -63.5056
lclavicle 1.87914e-016 3.77691e-015
lhumerus 26.5844 -24.103 73.661
lradius 59.8125
lwrist 16.6969
lhand -12.1882 -16.2058
lfingers 7.12502
lthumb 13.8757 13.3114
rfemur 9.80246 -2.19915 14.1504
rtibia 17.5993
rfoot -20.6098 -4.72578
rtoes -11.1098
lfemur -2.97816 5.32829 -15.2269
ltibia 35.9374
lfoot -23.204 7.0949
ltoes -55.5412
512
root -0.569187 18.2184 5.30839 -10.1019 0.64356 -1.34553
lowerback 11.6496 0.419249 2.10203
upperback 4.47453 0.794267 0.253716
thorax -1.83145 0.411514 -1.0233
lowerneck -7.79829 -1.55148 0.125406
upperneck 19.0673 -2.5019 1.82347
head 7.13634 -1.03145 0.359186
rclavicle -2.62924e-015 -6.88292e-015
rhumerus 34.4503 29.9709 -58.3361
rradius 59.2017
rwrist 14.7588
rhand -17.6263 -34.0239
rfingers 7.12502
rthumb 8.63097 -63.8274
lclavicle -2.62924e-015 -6.88292e-015
lhumerus 26.7053 -24.2115 73.2871
lradius 59.8428
lwrist 16.419
lhand -12.0725 -16.3514
lfingers 7.12502
lthumb 13.9871 13.1581
rfemur 9.82997 -2.21517 14.1972
rtibia 17.6208
rfoot -20.7241 -4.70015
rtoes -10.6725
lfemur -2.97093 5.25815 -15.1856
ltibia 35.9327
lfoot -23.2187 7.04177
ltoes -55.5387
513
root -0.574276 18.2177 5.31284 -10.0781 0.734317 -1.37042
lowerback 11.5988 0.397584 2.11152
upperback 4.46337 0.766345 0.280189
thorax -1.8166 0.39761 -0.997084
lowerneck -7.8101 -1.54644 0.218393
upperneck 19.0768 -2.47555 1.64771
head 7.13778 -1.02724 0.288939
rclavicle 1.46235e-015 6.24153e-015
rhumerus 34.0434 29.769 -58.8609
rradius 59.2654
rwrist 14.1423
rhand -17.811 -34.4114
rfingers 7.12502
rthumb 8.45278 -64.2222
lclavicle 1.46235e-015 6.24153e-015
lhumerus 26.8766 -24.3428 72.8795
lradius 59.8495
lwrist 16.1113
lhand -11.9837 -16.5104
lfingers 7.12502
lthumb 14.0727 12.9931
rfemur 9.82198 -2.2751 14.2344
rtibia 17.6515
rfoot -20.7677 -4.72118
rtoes -10.557
lfemur -3.00141 5.19441 -15.1532
ltibia 35.9452
lfoot -23.2348 6.95845
ltoes -55.5502
514
root -0.578432 18.2163 5.31713 -10.0601 0.798887 -1.37107
lowerback 11.5558 0.395412 2.10873
upperback 4.46365 0.763198 0.317993
thorax -1.79365 0.396044 -0.955412
lowerneck -7.85293 -1.53297 0.288615
upperneck 19.1217 -2.4362 1.47811
head 7.15648 -1.01728 0.225205
rclavicle -1.62833e-014 -8.21229e-015
rhumerus 33.6299 29.5321 -59.3514
rradius 59.3584
rwrist 13.2529
rhand -17.9344 -34.9572
rfingers 7.12502
rthumb 8.3336 -64.7728
lclavicle -1.62833e-014 -8.21229e-015
lhumerus 27.1599 -24.5254 72.4397
lradius 59.7903
lwrist 15.7887
lhand -11.8652 -16.6405
lfingers 7.12502
lthumb 14.1869 12.855
rfemur 9.81698 -2.33606 14.24
rtibia 17.68
rfoot -20.765 -4.73613
rtoes -10.6147
lfemur -3.0219 5.15765 -15.1461
ltibia 35.9621
lfoot -23.2451 6.90369
ltoes -55.5683
